<?xml version="1.0" standalone="no"?>
<!DOCTYPE svg PUBLIC "-//W3C//DTD SVG 20010904//EN"
 "http://www.w3.org/TR/2001/REC-SVG-20010904/DTD/svg10.dtd">
<svg version="1.0" xmlns="http://www.w3.org/2000/svg"
 width="1072.000000pt" height="1280.000000pt" viewBox="0 0 1072.000000 1280.000000"
 preserveAspectRatio="xMidYMid meet">
<metadata>
Created by potrace 1.15, written by Peter Selinger 2001-2017
</metadata>
<g transform="translate(0.000000,1280.000000) scale(0.100000,-0.100000)"
fill="#000000" stroke="none">
<path d="M855 12785 c-388 -73 -692 -340 -808 -710 -174 -556 153 -1139 728
-1297 90 -25 315 -35 411 -19 439 75 767 398 850 837 22 118 15 315 -16 429
-100 372 -386 655 -755 746 -108 27 -304 33 -410 14z"/>
<path d="M7180 10581 l-1895 -1407 -145 42 c-80 24 -243 72 -362 107 l-217 64
-188 183 c-104 101 -413 404 -688 675 -282 277 -535 518 -581 551 -196 145
-443 235 -649 236 -193 0 -396 -59 -675 -198 -303 -151 -554 -328 -758 -536
-185 -188 -208 -246 -200 -492 12 -335 124 -658 541 -1561 243 -526 335 -735
424 -960 85 -214 183 -505 187 -550 1 -16 7 -39 13 -50 13 -24 47 -175 68
-300 53 -319 75 -935 57 -1595 -7 -245 -17 -522 -23 -616 l-10 -172 -535
-1153 c-295 -635 -547 -1184 -560 -1221 -46 -126 -52 -264 -17 -403 43 -172
191 -355 353 -433 114 -56 185 -73 305 -74 258 -1 487 136 603 361 81 156
1170 2499 1193 2566 l24 70 -3 1004 c-3 840 -2 1003 10 998 7 -3 177 -77 378
-165 201 -88 595 -259 875 -382 281 -122 512 -224 514 -226 4 -4 50 -293 227
-1434 68 -443 86 -516 146 -618 45 -76 159 -189 238 -235 226 -131 503 -125
718 17 153 101 244 224 292 398 33 120 27 210 -40 635 -32 208 -109 695 -170
1083 -60 388 -117 739 -126 780 -20 96 -79 218 -143 296 -102 125 -114 132
-1008 530 l-822 366 -270 478 c-149 262 -273 483 -275 491 -3 9 106 96 320
254 179 132 331 241 339 243 7 2 139 -33 292 -78 153 -45 282 -82 287 -84 12
-3 -18 -19 -584 -321 -256 -137 -469 -252 -474 -256 -7 -6 141 -299 163 -322
4 -4 324 162 710 369 l702 376 114 -32 c97 -26 129 -31 212 -29 l98 2 27 -149
c25 -138 78 -432 333 -1854 280 -1558 374 -2072 377 -2075 1 -1 82 12 178 29
129 24 176 36 178 47 1 8 -31 201 -72 429 -41 228 -143 793 -226 1255 -83 462
-221 1226 -306 1698 l-154 858 29 57 c107 214 57 475 -123 639 -80 73 -130 95
-401 174 -137 40 -254 75 -258 79 -5 4 785 596 1755 1315 970 720 1772 1316
1782 1326 19 17 16 21 -90 163 -60 80 -111 146 -114 146 -3 -1 -858 -634
-1900 -1409z m-3326 -2058 c71 -63 122 -91 238 -127 l102 -31 -199 -148 c-109
-82 -201 -145 -206 -140 -4 4 -112 193 -239 418 -128 226 -236 414 -241 420
-5 5 -9 12 -9 17 0 10 491 -352 554 -409z"/>
<path d="M9604 11594 c-4 -14 -147 -656 -318 -1426 l-311 -1400 -525 -220
c-289 -122 -528 -225 -531 -230 -3 -5 -216 -598 -473 -1317 l-467 -1307 446
-1006 445 -1007 -121 -373 c-67 -205 -125 -379 -129 -387 -4 -8 -128 -51 -281
-97 -151 -45 -530 -160 -844 -254 -313 -95 -653 -197 -755 -227 -102 -30 -186
-56 -187 -57 -1 -1 -29 -206 -62 -455 -34 -250 -63 -456 -65 -458 -4 -4 -115
-32 -716 -178 -124 -30 -382 -93 -575 -140 -192 -47 -451 -110 -575 -140 -124
-30 -380 -92 -570 -139 -190 -46 -460 -112 -600 -146 -140 -34 -256 -63 -257
-64 -2 -1 4 -115 12 -252 8 -137 15 -264 15 -282 l0 -32 4078 2 4077 3 68 27
c148 60 246 159 308 313 l24 60 2 1860 c2 1023 -1 3489 -5 5480 l-7 3619 -55
13 c-30 7 -266 62 -525 123 -258 60 -480 112 -492 115 -18 4 -24 0 -29 -21z"/>
</g>
</svg>
